<svg xmlns="http://www.w3.org/2000/svg" viewBox="0 0 520 100" fill="none">
  <!-- Stylized Simurgh bird icon -->
  <g transform="translate(0, 10)" fill="#4ade80">
    <!-- Body -->
    <path d="M40 35 C38 28, 44 20, 52 22 C56 23, 58 26, 58 30 C58 33, 56 35, 53 36 L40 35Z" />
    <!-- Wing upper -->
    <path d="M35 38 C28 30, 18 28, 6 32 C4 33, 2 35, 4 36 C8 38, 14 37, 20 36 L35 38Z" />
    <!-- Wing lower -->
    <path d="M32 44 C24 40, 14 40, 4 44 C2 45, 1 47, 3 48 C7 49, 14 47, 22 44 L32 44Z" />
    <!-- Wing bottom -->
    <path d="M30 50 C22 48, 12 50, 4 56 C2 58, 3 60, 5 59 C10 57, 18 52, 28 50 L30 50Z" />
    <!-- Tail feathers -->
    <path d="M42 40 C38 48, 32 56, 22 64 C20 66, 21 68, 23 67 C30 62, 38 54, 44 44 L42 40Z" />
    <path d="M46 42 C44 52, 40 60, 34 68 C32 71, 34 72, 36 70 C42 64, 46 54, 48 44 L46 42Z" />
    <!-- Head crest -->
    <path d="M50 22 C48 16, 50 10, 56 8 C58 7, 60 8, 59 10 C57 14, 54 18, 52 22Z" />
    <!-- Eye -->
    <circle cx="50" cy="28" r="2" fill="#0a0f0d" />
    <!-- Beak -->
    <path d="M56 28 L64 26 L58 31Z" />
  </g>
  <!-- "Azad" text in brand green -->
  <text x="80" y="68" font-family="'Space Grotesk', 'Inter', system-ui, sans-serif" font-weight="700" font-size="58" letter-spacing="-1.5" fill="#4ade80">Azad</text>
  <!-- "Link" text in white -->
  <text x="282" y="68" font-family="'Space Grotesk', 'Inter', system-ui, sans-serif" font-weight="700" font-size="58" letter-spacing="-1.5" fill="#ffffff">Link</text>
</svg>
